<svg width="16" height="16" viewBox="0 0 16 16" xmlns="http://www.w3.org/2000/svg">
<path d="M15.9921 4.19417C15.9204 5.74796 14.8328 7.87545 12.7292 10.5767C10.5539 13.3974 8.71321 14.8078 7.20723 14.8078C6.27494 14.8078 5.48612 13.9472 4.84067 12.2261L3.54983 7.49299C3.07174 5.77187 2.55778 4.9113 2.00799 4.9113C1.88847 4.9113 1.47013 5.1623 0.752981 5.6643L0 4.69616C0.782179 4.00887 1.5591 3.31563 2.33069 2.61647C3.38248 1.7081 4.17134 1.23002 4.69723 1.1822C5.94027 1.06268 6.70521 1.91129 6.99206 3.72803C7.30282 5.6882 7.51796 6.90733 7.63747 7.38542C7.99604 9.01093 8.39046 9.82369 8.82074 9.82369C9.1554 9.82369 9.65741 9.29779 10.3267 8.246C10.9961 7.19419 11.3546 6.39339 11.4024 5.84359C11.498 4.93522 11.1395 4.48104 10.3267 4.48104C9.94425 4.48104 9.54982 4.56471 9.14346 4.73204C9.93231 2.17425 11.4383 0.931216 13.6614 1.00293C15.3108 1.05075 16.0878 2.11448 15.9921 4.19417Z" />
</svg>
