<svg xmlns="http://www.w3.org/2000/svg" viewBox="0 0 512 512">
<style>
@media (prefers-color-scheme: dark) {
path { fill: #fff }
}
</style>
<path fill="#000" d="M362.615 326.184c-18.252 18.252-42.526 28.302-68.354 28.302-53.446 0-96.928-43.483-96.928-96.927 0-53.444 43.482-96.928 96.928-96.928 25.656 0 49.93 10.148 68.354 28.574l.764.764 6.664-6.662-.775-.764c-20.337-20.049-46.975-31.091-75.005-31.091-58.506 0-106.104 47.599-106.104 106.104 0 58.506 47.598 106.105 106.104 106.105 28.32 0 54.96-11.042 75.011-31.093l.784-.782-6.701-6.342-.742.74ZM444.374 149l-67.447 209.471-.456 1.41h9.559l17.01-52.919h82.396l17.01 52.919H512L444.376 149h-.002Zm38.208 148.785H405.9l38.469-119.054 38.213 119.054ZM9.176 155.232H0v204.651h166.542V350.7H9.176V155.232Z"/><path fill="#000" d="M157.553 255.668c0 26.892-21.878 48.768-48.768 48.768s-48.768-21.878-48.768-48.768V155.232h-9.252v100.436c0 31.991 26.027 58.018 58.018 58.018s58.02-26.029 58.02-58.018V155.232h-9.252l.002 100.436Z"/></svg>