<svg viewBox="0 0 455 188" xmlns="http://www.w3.org/2000/svg">
  <path d="M327.763 160.329C310.66 177.432 287.3 187.784 261.536 187.784C209.756 187.784 167.844 145.883 167.844 94.1027C167.844 42.3222 209.744 0.410156 261.525 0.410156C287.288 0.410156 310.66 11.0032 327.751 27.8646L323.174 32.4423C307.278 16.547 285.598 6.66706 261.525 6.66706C213.356 6.66706 174.101 45.9222 174.101 94.0912C174.101 142.26 213.356 181.515 261.525 181.515C285.609 181.515 307.278 171.877 323.174 155.982L327.751 160.318L327.763 160.329Z" />
  <path d="M395.427 20.6416L430.829 130.942H359.784L395.427 20.6416ZM395.427 0.410156L336.182 184.414H342.681L357.851 137.211H432.75L447.921 184.414H454.419L395.427 0.410156Z" />
  <path d="M0 3.78027V184.414H146.635V178.145H6.2569V3.78027H0Z" />
  <path d="M96.0735 143.203C68.067 143.203 45.2822 120.419 45.2822 92.412V3.78027H51.6081V92.412C51.6081 116.934 71.552 136.877 96.0735 136.877C120.595 136.877 140.539 116.934 140.539 92.412V3.78027H146.865V92.412C146.865 120.419 124.08 143.203 96.0735 143.203Z" />
</svg>
