<svg width="15" height="16" viewBox="0 0 15 16" xmlns="http://www.w3.org/2000/svg"><path d="M12.111 3.20711C11.2492 2.64503 10.627 1.74608 10.4331 0.698056C10.3911 0.471515 10.3681 0.238563 10.3681 0H7.61733L7.61279 11.0241C7.56657 12.2586 6.55061 13.2494 5.3049 13.2494C4.9178 13.2494 4.55315 13.1527 4.2323 12.9836C3.49631 12.5963 2.99274 11.8248 2.99274 10.937C2.99274 9.66192 4.03007 8.62459 5.3049 8.62459C5.54293 8.62459 5.77107 8.66386 5.9872 8.73145V5.9232C5.76359 5.89274 5.53652 5.87377 5.3049 5.87377C2.51348 5.87404 0.242188 8.14533 0.242188 10.937C0.242188 12.65 1.09813 14.1658 2.40368 15.0823C3.22596 15.6597 4.22643 16 5.30517 16C8.09686 16 10.3681 13.7287 10.3681 10.937V5.34696C11.4469 6.12142 12.7687 6.57771 14.195 6.57771V3.82689C13.4267 3.82689 12.711 3.59848 12.111 3.20711Z" fill="currentColor"></path></svg>